<svg xmlns="http://www.w3.org/2000/svg" width="300" height="300" viewBox="0 0 300 300"><rect width="100%" height="100%" fill="#DDDDDD"/><path fill="#999999" d="M69.545 142.6h1.72v12.29h-2.01v-7.94q0-.48.05-1.03l-3.72 6.98q-.26.5-.8.5h-.33q-.54 0-.8-.5l-3.76-7 .04.55q.02.27.02.5v7.94h-2.02V142.6h1.73q.15 0 .26.01t.2.04.16.11q.08.08.14.2l3.68 6.83q.15.27.27.56.13.29.24.6.12-.32.25-.61.13-.3.27-.57l3.63-6.81q.07-.12.15-.2.07-.08.16-.11t.2-.04.27-.01m5.78 6.93h3.97q0-.41-.12-.77-.11-.36-.34-.64-.23-.27-.59-.43-.35-.15-.82-.15-.91 0-1.43.52-.52.51-.67 1.47m5.36 1.26h-5.4q.05.67.24 1.16t.49.81q.31.32.73.48.42.15.93.15t.88-.12q.37-.11.65-.26.27-.14.48-.26t.4-.12q.27 0 .4.19l.6.77q-.35.41-.78.68-.44.28-.91.45-.47.16-.96.23t-.95.07q-.91 0-1.69-.3-.78-.31-1.36-.9t-.91-1.46-.33-2.02q0-.89.29-1.68.29-.78.83-1.36.54-.59 1.32-.93.77-.34 1.75-.34.83 0 1.52.27.7.26 1.2.77.5.5.79 1.24.28.73.28 1.68 0 .47-.1.64-.1.16-.39.16m6.67 1.85v-1.47q-.91.04-1.53.15-.62.12-.99.3-.38.18-.54.41-.16.24-.16.52 0 .55.33.79t.85.24q.65 0 1.12-.23.47-.24.92-.71m-4.43-4.58-.38-.68q1.51-1.37 3.62-1.37.77 0 1.37.25t1.02.7q.42.44.63 1.06.22.62.22 1.36v5.51h-.95q-.3 0-.46-.09t-.26-.36l-.18-.63q-.33.3-.65.52-.31.23-.65.38t-.73.24q-.39.08-.85.08-.56 0-1.02-.15-.47-.15-.81-.45t-.53-.74-.19-1.03q0-.33.12-.66.11-.32.36-.62t.65-.56.98-.46 1.35-.32q.78-.12 1.77-.15v-.51q0-.87-.37-1.29-.38-.43-1.08-.43-.51 0-.85.12-.33.12-.59.27-.25.15-.46.27t-.46.12q-.23 0-.38-.12-.15-.11-.24-.26m8.48-5.8h2.1v12.63h-2.1zm10.95 6.52h1.7q.63 0 1.1-.16t.78-.45.46-.71q.16-.42.16-.94 0-.5-.16-.9-.15-.39-.46-.68-.3-.28-.77-.42-.47-.15-1.11-.15h-1.7zm-2.29-6.18h3.99q1.24 0 2.14.29t1.49.81q.58.51.87 1.24.28.72.28 1.58 0 .89-.3 1.63-.29.75-.89 1.28-.59.54-1.49.84-.9.29-2.1.29h-1.7v4.33h-2.29zm12.04 4.1.13.98q.41-.78.97-1.23.56-.44 1.33-.44.6 0 .97.26l-.14 1.57q-.04.16-.12.22t-.22.06q-.13 0-.38-.04t-.49-.04q-.35 0-.62.1t-.49.29q-.21.2-.38.47-.16.27-.31.62v5.37h-2.1v-8.72h1.23q.33 0 .45.11.13.12.17.42m6.15 2.83h3.96q0-.41-.11-.77-.12-.36-.35-.64-.23-.27-.58-.43-.35-.15-.82-.15-.91 0-1.43.52-.53.51-.67 1.47m5.35 1.26h-5.39q.05.67.24 1.16.18.49.49.81.3.32.73.48.42.15.93.15t.88-.12q.37-.11.64-.26.28-.14.49-.26.2-.12.4-.12.26 0 .39.19l.6.77q-.34.41-.78.68-.43.28-.9.45-.47.16-.96.23t-.95.07q-.91 0-1.69-.3-.78-.31-1.36-.9t-.91-1.46-.33-2.02q0-.89.29-1.68.28-.78.82-1.36.54-.59 1.32-.93t1.76-.34q.82 0 1.52.27.7.26 1.2.77.5.5.78 1.24.29.73.29 1.68 0 .47-.1.64-.11.16-.4.16m4.17-2.07v3.91q.36.43.78.61t.91.18q.48 0 .86-.18t.65-.54q.27-.37.41-.93.15-.55.15-1.31t-.13-1.29q-.12-.54-.35-.87t-.56-.48q-.32-.16-.74-.16-.65 0-1.11.28t-.87.78m-.28-2.17.17.81q.53-.6 1.21-.98.68-.37 1.6-.37.72 0 1.31.29.59.3 1.02.87.43.56.66 1.39t.23 1.9q0 .98-.26 1.81t-.75 1.45q-.49.61-1.18.95-.7.35-1.55.35-.74 0-1.25-.23-.52-.22-.93-.62v3.57h-2.1v-11.57h1.28q.41 0 .54.38m20.74 5.44q.19 0 .33.15l.9.97q-.75.93-1.84 1.42-1.09.5-2.62.5-1.37 0-2.46-.47t-1.87-1.3q-.77-.84-1.18-1.99-.42-1.16-.42-2.53 0-1.38.45-2.53.44-1.15 1.24-1.99.81-.83 1.92-1.29 1.11-.47 2.46-.47t2.39.44q1.04.45 1.77 1.16l-.76 1.06q-.07.11-.18.18-.11.08-.29.08-.13 0-.27-.07l-.29-.18q-.16-.11-.38-.24-.21-.12-.49-.23t-.65-.18-.85-.07q-.83 0-1.51.29-.69.3-1.18.85-.49.56-.77 1.36-.27.81-.27 1.83 0 1.04.3 1.85.29.81.79 1.36t1.18.84q.68.3 1.46.3.47 0 .85-.05t.7-.16q.32-.12.6-.29t.57-.43q.08-.08.17-.12.1-.05.2-.05m6.33-5.96q.97 0 1.77.32.79.31 1.36.89.56.58.87 1.41.3.83.3 1.86 0 1.04-.3 1.87-.31.84-.87 1.42-.57.59-1.36.9-.8.32-1.77.32-.98 0-1.77-.32-.8-.31-1.37-.9-.56-.58-.87-1.42-.31-.83-.31-1.87 0-1.03.31-1.86t.87-1.41q.57-.58 1.37-.89.79-.32 1.77-.32m0 7.37q1.09 0 1.61-.73.53-.73.53-2.14t-.53-2.15q-.52-.74-1.61-.74-1.1 0-1.63.74-.54.75-.54 2.15t.54 2.14q.53.73 1.63.73m7.73-6.85.14.69q.27-.26.56-.49.29-.22.62-.38t.7-.25q.38-.09.82-.09.71 0 1.26.25.56.24.93.68.37.43.56 1.04t.19 1.34v5.55h-2.1v-5.55q0-.8-.37-1.24-.36-.44-1.11-.44-.54 0-1.02.25t-.9.67v6.31h-2.1v-8.72h1.28q.41 0 .54.38m10.67 8.48q-1.13 0-1.74-.65-.61-.64-.61-1.77v-4.87h-.89q-.17 0-.29-.11t-.12-.33v-.83l1.4-.23.44-2.38q.05-.17.17-.27.11-.09.3-.09h1.09v2.75h2.33v1.49h-2.33v4.73q0 .41.2.63.2.23.55.23.19 0 .32-.04.14-.05.23-.1.1-.05.18-.1.07-.04.15-.04.09 0 .15.04.06.05.13.14l.63 1.02q-.46.38-1.05.58-.6.2-1.24.2m8.03-2.39v-1.47q-.91.04-1.53.15-.62.12-1 .3-.37.18-.53.41-.16.24-.16.52 0 .55.32.79.33.24.86.24.64 0 1.12-.23.47-.24.92-.71m-4.44-4.58-.37-.68q1.5-1.37 3.62-1.37.76 0 1.37.25.6.25 1.02.7.41.44.63 1.06t.22 1.36v5.51h-.96q-.29 0-.45-.09-.17-.09-.26-.36l-.19-.63q-.33.3-.64.52-.32.23-.66.38t-.72.24q-.39.08-.86.08-.55 0-1.02-.15t-.81-.45-.52-.74q-.19-.44-.19-1.03 0-.33.11-.66.11-.32.36-.62t.65-.56.98-.46q.59-.2 1.36-.32t1.77-.15v-.51q0-.87-.38-1.29-.37-.43-1.08-.43-.51 0-.84.12-.34.12-.59.27-.26.15-.46.27-.21.12-.47.12-.22 0-.37-.12-.16-.11-.25-.26m8.53-1.89h2.1v8.72h-2.1zm2.39-2.54q0 .27-.11.51t-.29.41q-.18.18-.43.29-.25.1-.53.1-.27 0-.51-.1-.24-.11-.42-.29-.18-.17-.29-.41-.1-.24-.1-.51 0-.28.1-.53.11-.25.29-.42.18-.18.42-.29t.51-.11q.28 0 .53.11t.43.29q.18.17.29.42t.11.53m3.68 2.92.14.69q.26-.26.56-.49.29-.22.62-.38.32-.16.7-.25.37-.09.81-.09.72 0 1.27.25.55.24.92.68.37.43.56 1.04.2.61.2 1.34v5.55h-2.1v-5.55q0-.8-.37-1.24-.36-.44-1.11-.44-.55 0-1.02.25-.48.25-.9.67v6.31h-2.1v-8.72h1.28q.41 0 .54.38m9.42 2.98h3.96q0-.41-.11-.77-.12-.36-.35-.64-.23-.27-.58-.43-.35-.15-.82-.15-.91 0-1.43.52-.52.51-.67 1.47m5.36 1.26h-5.4q.05.67.24 1.16.18.49.49.81t.73.48q.42.15.93.15t.88-.12q.37-.11.64-.26.28-.14.49-.26t.4-.12q.27 0 .39.19l.61.77q-.35.41-.79.68-.43.28-.9.45-.47.16-.96.23t-.95.07q-.91 0-1.69-.3-.78-.31-1.36-.9t-.91-1.46-.33-2.02q0-.89.29-1.68.29-.78.83-1.36.54-.59 1.31-.93.78-.34 1.76-.34.82 0 1.52.27.7.26 1.2.77.5.5.79 1.24.28.73.28 1.68 0 .47-.1.64-.1.16-.39.16m3.92-4.09.12.98q.41-.78.97-1.23.56-.44 1.33-.44.6 0 .97.26l-.14 1.57q-.04.16-.12.22t-.22.06q-.13 0-.38-.04t-.49-.04q-.34 0-.62.1-.27.1-.48.29-.22.2-.39.47-.16.27-.31.62v5.37h-2.1v-8.72h1.24q.32 0 .45.11.12.12.17.42m16.06-2.95-.57 1.08q-.1.18-.22.26-.11.08-.28.08-.18 0-.39-.13t-.49-.29q-.29-.16-.68-.29-.39-.14-.91-.14-.48 0-.84.12-.35.11-.6.32-.24.2-.36.49-.12.28-.12.62 0 .43.25.72.24.29.64.5.4.2.91.36t1.04.35q.54.18 1.05.42t.91.61.64.91q.24.53.24 1.3 0 .83-.28 1.56-.29.73-.84 1.27-.54.54-1.33.85t-1.82.31q-.58 0-1.15-.12-.57-.11-1.09-.33-.53-.21-.99-.51-.45-.29-.81-.66l.67-1.1q.09-.11.22-.2.14-.08.29-.08.21 0 .46.18.25.17.59.38.34.22.79.39.46.18 1.09.18.98 0 1.52-.47.53-.46.53-1.33 0-.48-.24-.79-.24-.3-.64-.51t-.91-.36q-.51-.14-1.04-.31t-1.04-.41-.91-.62-.64-.95q-.24-.58-.24-1.42 0-.67.27-1.31t.78-1.13 1.25-.79q.75-.3 1.72-.3 1.09 0 2.01.34t1.56.95m3.54 5.78h3.96q0-.41-.12-.77-.11-.36-.34-.64-.23-.27-.58-.43-.36-.15-.82-.15-.91 0-1.44.52-.52.51-.66 1.47m5.35 1.26h-5.4q.06.67.24 1.16.19.49.5.81.3.32.72.48.42.15.93.15t.88-.12q.37-.11.65-.26.27-.14.48-.26t.41-.12q.26 0 .39.19l.6.77q-.35.41-.78.68-.43.28-.91.45-.47.16-.96.23t-.94.07q-.91 0-1.7-.3-.78-.31-1.36-.9-.57-.59-.91-1.46-.33-.87-.33-2.02 0-.89.29-1.68.29-.78.83-1.36.54-.59 1.32-.93t1.75-.34q.83 0 1.53.27.69.26 1.19.77.51.5.79 1.24.29.73.29 1.68 0 .47-.11.64-.1.16-.39.16m4.97 4.24q-1.13 0-1.74-.65-.61-.64-.61-1.77v-4.87h-.89q-.17 0-.29-.11t-.12-.33v-.83l1.4-.23.44-2.38q.05-.17.17-.27.11-.09.3-.09h1.09v2.75h2.33v1.49h-2.33v4.73q0 .41.2.63.2.23.55.23.19 0 .32-.04.14-.05.23-.1.1-.05.18-.1.08-.04.15-.04.1 0 .15.04.06.05.13.14l.63 1.02q-.46.38-1.05.58-.6.2-1.24.2"/></svg>