<svg xmlns="http://www.w3.org/2000/svg" width="300" height="300" viewBox="0 0 300 300"><rect width="100%" height="100%" fill="#DDDDDD"/><path fill="#999999" d="M63.475 149.77h1.69q.75 0 1.32-.19t.93-.52q.36-.34.54-.8t.18-1.01q0-1.1-.72-1.69t-2.22-.59h-1.72zm4.98 2.24 3.63 5.34h-2.44q-.69 0-1-.54l-3.04-4.63q-.16-.26-.37-.37t-.61-.11h-1.15v5.65h-2.69v-14.46h4.41q1.47 0 2.53.3 1.05.31 1.73.86.67.55.99 1.32.33.76.33 1.68 0 .73-.22 1.38t-.62 1.18q-.41.53-1 .93-.6.4-1.35.63.25.15.47.35.22.21.4.49m6.75-.97h4.66q0-.48-.13-.9-.14-.43-.4-.75-.28-.32-.69-.5-.42-.19-.97-.19-1.07 0-1.68.61-.62.61-.79 1.73m6.3 1.49h-6.34q.06.79.28 1.36.22.58.58.96.35.37.85.55.49.19 1.1.19.59 0 1.03-.14t.76-.31.57-.31.47-.14q.31 0 .47.23l.7.9q-.41.48-.92.81-.5.32-1.06.51-.55.2-1.13.28t-1.12.08q-1.07 0-1.99-.36-.92-.35-1.59-1.05-.69-.69-1.08-1.72-.39-1.02-.39-2.37 0-1.05.34-1.98.34-.92.98-1.61.63-.68 1.55-1.08.91-.4 2.06-.4.97 0 1.79.31t1.42.9q.58.6.92 1.46.33.87.33 1.98 0 .56-.11.76-.13.19-.47.19m9.26-4.33-.56.89q-.1.16-.21.22-.12.07-.28.07-.18 0-.39-.1-.2-.1-.47-.22-.27-.13-.62-.23-.34-.1-.81-.1-.73 0-1.15.31-.41.31-.41.81 0 .33.21.55.22.23.57.4.36.17.81.3.45.14.91.3.47.16.92.37.45.2.8.51.36.32.57.76.22.44.22 1.06 0 .74-.27 1.36-.26.63-.78 1.08-.52.46-1.29.71-.76.26-1.76.26-.53 0-1.04-.09-.5-.1-.97-.27-.46-.17-.86-.4-.39-.23-.7-.5l.58-.94q.11-.17.25-.26.16-.09.39-.09t.43.13q.21.13.48.28t.63.28q.37.13.93.13.44 0 .75-.11.32-.1.52-.27.21-.17.3-.4.1-.22.1-.46 0-.36-.22-.59t-.57-.4-.81-.31q-.45-.13-.93-.29-.47-.16-.93-.38-.45-.21-.81-.54-.35-.33-.57-.81-.21-.48-.21-1.16 0-.63.25-1.2t.73-.99q.49-.43 1.21-.69.73-.25 1.67-.25 1.07 0 1.94.35t1.45.92m2.04-1.11h2.49v10.26h-2.49zm2.82-2.99q0 .32-.12.6-.13.28-.35.49-.21.21-.5.33-.29.13-.62.13-.32 0-.61-.13-.28-.12-.49-.33t-.34-.49q-.12-.28-.12-.6 0-.33.12-.62.13-.29.34-.5t.49-.34q.29-.12.61-.12.33 0 .62.12.29.13.5.34.22.21.35.5.12.29.12.62m9 4.1-.56.89q-.09.16-.2.22-.11.07-.28.07-.18 0-.39-.1t-.47-.22q-.27-.13-.62-.23-.34-.1-.81-.1-.74 0-1.15.31t-.41.81q0 .33.21.55.22.23.57.4.36.17.8.3.46.14.92.3.47.16.92.37.44.2.8.51.35.32.57.76.21.44.21 1.06 0 .74-.26 1.36-.27.63-.78 1.08-.53.46-1.29.71-.77.26-1.77.26-.52 0-1.03-.09-.51-.1-.97-.27-.47-.17-.86-.4-.4-.23-.69-.5l.57-.94q.11-.17.26-.26.14-.09.38-.09.23 0 .43.13t.48.28q.27.15.63.28.37.13.93.13.44 0 .75-.11.32-.1.52-.27t.3-.4q.09-.22.09-.46 0-.36-.21-.59t-.57-.4q-.35-.17-.81-.31-.46-.13-.93-.29-.48-.16-.93-.38-.45-.21-.81-.54t-.57-.81q-.22-.48-.22-1.16 0-.63.25-1.2t.74-.99q.48-.43 1.21-.69.73-.25 1.68-.25 1.05 0 1.92.35.88.35 1.45.92m5.4 9.31q-1.35 0-2.06-.75-.72-.76-.72-2.09v-5.73h-1.04q-.21 0-.35-.13-.13-.13-.13-.39v-.98l1.65-.27.51-2.8q.06-.2.2-.31t.36-.11h1.28v3.23h2.73v1.76h-2.73v5.56q0 .48.23.75.24.27.64.27.24 0 .39-.06.15-.05.27-.11t.2-.12q.1-.05.18-.05.11 0 .18.05.07.06.16.17l.73 1.2q-.54.45-1.23.68-.7.23-1.45.23m9.43-2.81v-1.73q-1.07.05-1.8.18-.73.14-1.17.35t-.63.49-.19.61q0 .65.39.93.38.28 1 .28.76 0 1.32-.27.55-.28 1.08-.84m-5.22-5.39-.44-.79q1.77-1.62 4.26-1.62.9 0 1.61.3.71.29 1.2.81.49.53.75 1.26.25.73.25 1.6v6.48h-1.12q-.35 0-.54-.1-.19-.11-.3-.43l-.22-.74q-.39.35-.76.61-.37.27-.77.45t-.85.28q-.46.09-1.01.09-.65 0-1.2-.17-.55-.18-.95-.53t-.62-.87-.22-1.21q0-.39.13-.78.13-.38.43-.73t.76-.66q.47-.31 1.16-.54.68-.23 1.59-.38.91-.14 2.08-.17v-.6q0-1.03-.44-1.53-.44-.49-1.27-.49-.6 0-.99.14-.4.14-.7.32-.3.17-.54.31t-.55.14q-.26 0-.44-.14-.18-.13-.29-.31m12.09-1.77.17.81q.31-.31.66-.58.34-.26.73-.45.38-.18.82-.28.44-.11.96-.11.84 0 1.49.29.65.28 1.09.79.43.52.66 1.23.22.72.22 1.58v6.53h-2.47v-6.53q0-.94-.43-1.46-.43-.51-1.31-.51-.64 0-1.2.29t-1.06.79v7.42h-2.47v-10.26h1.51q.48 0 .63.45m17.14.82-.65.9q-.11.14-.21.22-.11.08-.31.08-.19 0-.37-.12l-.43-.26q-.25-.14-.59-.26-.35-.11-.86-.11-.65 0-1.14.24-.49.23-.81.67-.33.44-.49 1.06-.16.63-.16 1.42 0 .82.18 1.46.17.64.5 1.07.33.44.8.66.47.23 1.06.23t.96-.15q.36-.14.61-.31.25-.18.44-.33.18-.14.41-.14.3 0 .45.23l.71.9q-.41.48-.89.81-.48.32-.99.51-.52.2-1.06.28-.55.08-1.09.08-.95 0-1.79-.36-.84-.35-1.47-1.03t-.99-1.67q-.37-.98-.37-2.24 0-1.13.33-2.1.32-.96.95-1.67.63-.7 1.56-1.1t2.14-.4q1.15 0 2.02.37.86.37 1.55 1.06m3.59 2.68h4.66q0-.48-.13-.9-.14-.43-.41-.75t-.68-.5q-.42-.19-.97-.19-1.07 0-1.68.61-.62.61-.79 1.73m6.3 1.49h-6.35q.06.79.28 1.36.22.58.58.96.36.37.86.55.49.19 1.09.19t1.04-.14q.43-.14.76-.31.32-.17.57-.31.24-.14.47-.14.31 0 .46.23l.71.9q-.41.48-.92.81-.51.32-1.06.51-.56.2-1.13.28-.58.08-1.12.08-1.07 0-1.99-.36-.92-.35-1.6-1.05-.68-.69-1.07-1.72-.39-1.02-.39-2.37 0-1.05.34-1.98.34-.92.98-1.61.63-.68 1.55-1.08.91-.4 2.06-.4.97 0 1.79.31t1.41.9q.59.6.93 1.46.33.87.33 1.98 0 .56-.12.76-.12.19-.46.19m10.37 2.72h2.72q.75 0 1.26-.18t.82-.48q.3-.3.44-.7.13-.4.13-.85 0-.47-.15-.85-.15-.37-.47-.63-.32-.27-.82-.41-.51-.14-1.22-.14h-2.71zm2.29-10.28h-2.29v4.18h2.14q1.38 0 2.09-.5.7-.5.7-1.59 0-1.13-.64-1.61t-2-.48m-4.98-2.08h4.98q1.42 0 2.43.27t1.66.77q.64.5.94 1.21t.3 1.6q0 .51-.15.98-.15.46-.46.86-.32.41-.8.74-.49.33-1.16.56 2.98.67 2.98 3.22 0 .92-.35 1.7t-1.02 1.34q-.67.57-1.65.89t-2.24.32h-5.46zm18.2 11.81v-1.73q-1.07.05-1.8.18-.73.14-1.16.35-.45.21-.64.49-.18.28-.18.61 0 .65.38.93t1.01.28q.75 0 1.31-.27.55-.28 1.08-.84m-5.21-5.39-.45-.79q1.77-1.62 4.27-1.62.89 0 1.61.3.71.29 1.19.81.49.53.75 1.26.25.73.25 1.6v6.48h-1.12q-.35 0-.54-.1-.19-.11-.3-.43l-.22-.74q-.39.35-.76.61-.36.27-.77.45-.39.18-.85.28-.45.09-1.01.09-.65 0-1.19-.17-.56-.18-.96-.53t-.62-.87-.22-1.21q0-.39.13-.78.13-.38.43-.73.29-.35.76-.66.48-.31 1.16-.54t1.6-.38q.9-.14 2.07-.17v-.6q0-1.03-.44-1.53-.44-.49-1.27-.49-.6 0-.99.14-.4.14-.69.32l-.55.31q-.25.14-.55.14-.26 0-.44-.14-.17-.13-.28-.31m12.08-1.77.17.81q.31-.31.66-.58.34-.26.73-.45.38-.18.82-.28.44-.11.97-.11.83 0 1.48.29.65.28 1.09.79.43.52.66 1.23.23.72.23 1.58v6.53h-2.48v-6.53q0-.94-.43-1.46-.43-.51-1.3-.51-.65 0-1.21.29t-1.06.79v7.42h-2.47v-10.26h1.51q.48 0 .63.45m15.59 6.77v-4.6q-.42-.51-.92-.72t-1.07-.21q-.56 0-1 .21-.46.21-.78.63-.32.43-.48 1.08-.17.66-.17 1.55 0 .9.14 1.52.14.63.41 1.02.27.4.66.57.4.18.87.18.78 0 1.31-.32.54-.32 1.03-.91m0-11.82h2.47v14.86h-1.52q-.48 0-.62-.45l-.21-.99q-.61.71-1.42 1.15-.8.44-1.87.44-.85 0-1.54-.35-.71-.35-1.21-1.02-.5-.66-.78-1.64t-.28-2.24q0-1.14.31-2.12.32-.98.89-1.7.58-.72 1.39-1.12.81-.41 1.83-.41.85 0 1.46.27t1.1.73zm18.53 1.76-.67 1.27q-.13.21-.26.3-.13.1-.34.1-.2 0-.45-.16-.25-.15-.59-.34-.33-.19-.79-.35-.46-.15-1.07-.15-.57 0-.99.14-.42.13-.7.37t-.42.57q-.14.34-.14.74 0 .51.28.85t.75.58q.48.24 1.08.43.59.19 1.23.4.63.22 1.22.51.61.28 1.08.71.47.44.75 1.07t.28 1.53q0 .98-.33 1.84-.33.85-.98 1.48-.64.64-1.58 1-.92.37-2.13.37-.68 0-1.36-.13-.67-.14-1.28-.39t-1.15-.6-.96-.78l.78-1.29q.11-.14.26-.24.17-.09.35-.09.25 0 .54.2.28.21.68.46.41.25.94.45.53.21 1.28.21 1.16 0 1.78-.54.63-.55.63-1.57 0-.57-.28-.93t-.75-.61q-.47-.24-1.08-.41-.6-.17-1.22-.37-.61-.2-1.22-.48-.59-.28-1.06-.73-.48-.45-.76-1.12-.29-.68-.29-1.67 0-.79.32-1.54.31-.75.92-1.33.6-.58 1.48-.93t2.02-.35q1.28 0 2.36.4 1.07.4 1.84 1.12m4.16 6.79h4.65q0-.48-.13-.9-.13-.43-.4-.75-.28-.32-.69-.5-.42-.19-.97-.19-1.06 0-1.68.61-.61.61-.78 1.73m6.29 1.49h-6.34q.06.79.28 1.36.22.58.58.96.36.37.85.55.49.19 1.09.19t1.04-.14.76-.31.57-.31.47-.14q.31 0 .47.23l.7.9q-.41.48-.92.81-.5.32-1.06.51-.55.2-1.13.28t-1.12.08q-1.07 0-1.99-.36-.92-.35-1.59-1.05-.69-.69-1.08-1.72-.39-1.02-.39-2.37 0-1.05.34-1.98.35-.92.98-1.61.63-.68 1.55-1.08.91-.4 2.07-.4.97 0 1.78.31.83.31 1.42.9.58.6.92 1.46.33.87.33 1.98 0 .56-.12.76-.11.19-.46.19m5.85 4.98q-1.34 0-2.05-.75-.72-.76-.72-2.09v-5.73h-1.05q-.2 0-.34-.13t-.14-.39v-.98l1.65-.27.52-2.8q.05-.2.19-.31t.36-.11h1.28v3.23h2.74v1.76h-2.74v5.56q0 .48.24.75.23.27.64.27.23 0 .39-.06.15-.05.27-.11.11-.06.2-.12.09-.05.18-.05.11 0 .18.05.07.06.15.17l.74 1.2q-.54.45-1.24.68t-1.45.23"/></svg>