<svg xmlns="http://www.w3.org/2000/svg" width="300" height="300" viewBox="0 0 300 300"><rect width="100%" height="100%" fill="#DDDDDD"/><path fill="#999999" d="M56.86 148.995h1.4q.52 0 .91-.13.38-.13.64-.37.25-.25.38-.59.13-.35.13-.78 0-.4-.13-.73t-.38-.56-.64-.35q-.38-.13-.91-.13h-1.4zm-1.89-5.09h3.29q1.02 0 1.76.24.74.23 1.23.66.48.43.71 1.02.24.6.24 1.3 0 .74-.25 1.35-.24.61-.73 1.06-.49.44-1.23.68-.74.25-1.73.25h-1.4v3.56h-1.89zm9.92 3.37.11.81q.33-.64.8-1.01.46-.37 1.09-.37.5 0 .8.22l-.12 1.3q-.03.12-.1.18-.06.05-.18.05-.1 0-.31-.04-.2-.03-.4-.03-.29 0-.51.08-.22.09-.4.24-.18.16-.32.38-.13.23-.25.52v4.42h-1.73v-7.18h1.01q.27 0 .37.09.11.1.14.34m5.06 2.33h3.27q0-.33-.1-.63-.09-.3-.28-.52-.19-.23-.48-.36-.29-.12-.68-.12-.75 0-1.18.42-.43.43-.55 1.21m4.41 1.05h-4.44q.04.55.2.95.15.4.4.67.25.26.6.39t.77.13.72-.1q.31-.1.53-.22l.4-.21q.17-.1.33-.1.22 0 .33.16l.49.63q-.28.34-.64.56-.36.23-.75.37-.38.13-.79.19-.4.05-.78.05-.75 0-1.39-.24-.64-.25-1.12-.74-.48-.48-.75-1.2t-.27-1.67q0-.73.24-1.38.23-.65.68-1.12.44-.48 1.08-.76t1.45-.28q.68 0 1.25.21.58.22.99.64.41.41.65 1.02.23.6.23 1.38 0 .39-.08.53-.09.14-.33.14m3.43 3.37h-1.72v-7.18h1.05q.34 0 .44.31l.12.54q.18-.21.39-.39t.44-.3q.24-.13.51-.2t.59-.07q.68 0 1.11.36.44.37.66.98.17-.36.42-.61.25-.26.55-.42t.64-.24q.34-.07.68-.07.6 0 1.06.18t.78.53q.31.35.48.85.16.51.16 1.16v4.57h-1.73v-4.57q0-.69-.3-1.03-.3-.35-.88-.35-.27 0-.49.09-.23.09-.4.26-.17.18-.27.43-.1.26-.1.6v4.57h-1.74v-4.57q0-.72-.29-1.05t-.85-.33q-.37 0-.7.19-.33.18-.61.5zm10.06-7.18h1.73v7.18h-1.73zm1.97-2.1q0 .23-.09.42-.09.2-.24.35-.15.14-.36.23-.2.09-.43.09-.22 0-.42-.09t-.35-.23q-.15-.15-.23-.35-.09-.19-.09-.42t.09-.43q.08-.2.23-.35t.35-.23q.2-.09.42-.09.23 0 .43.09.21.08.36.23t.24.35.09.43m5.99 2.1h1.72v7.18h-1.05q-.35 0-.44-.32l-.12-.57q-.44.45-.97.73-.53.27-1.25.27-.59 0-1.04-.2t-.76-.56q-.31-.37-.47-.87-.15-.5-.15-1.1v-4.56h1.73v4.56q0 .66.3 1.02t.91.36q.45 0 .84-.2.4-.2.75-.55zm5.16 7.18h-1.73v-7.18h1.06q.34 0 .44.31l.11.54q.19-.21.4-.39.2-.18.44-.3.23-.13.5-.2t.59-.07q.68 0 1.12.36.44.37.66.98.16-.36.42-.61.25-.26.55-.42t.64-.24q.34-.07.68-.07.6 0 1.06.18t.78.53q.31.35.47.85.17.51.17 1.16v4.57h-1.73v-4.57q0-.69-.3-1.03-.3-.35-.88-.35-.27 0-.5.09-.22.09-.4.26-.17.18-.26.43-.1.26-.1.6v4.57h-1.74v-4.57q0-.72-.29-1.05t-.85-.33q-.38 0-.7.19-.33.18-.61.5zm25.66-10.12h1.48l-3.14 10.12h-1.7l-2.22-6.92q-.09-.25-.16-.61-.05.17-.09.33-.04.15-.09.28l-2.23 6.92h-1.71l-3.14-10.12h1.58q.24 0 .41.11.16.12.22.31l1.72 6.06q.06.22.11.49.05.26.11.55.05-.3.12-.56t.14-.48l1.99-6.06q.06-.16.22-.29.17-.13.41-.13h.55q.24 0 .4.12.15.12.23.3l1.98 6.06q.15.43.27 1 .09-.55.2-1l1.72-6.06q.04-.17.21-.3.18-.12.41-.12m4.18-.28v3.99q.42-.39.93-.64.5-.24 1.18-.24.59 0 1.04.2.46.19.76.56.31.36.46.86.16.5.16 1.1v4.57h-1.73v-4.57q0-.66-.3-1.02t-.92-.36q-.44 0-.84.2-.39.21-.74.56v5.19h-1.73v-10.4zm7.53 5.98h3.27q0-.33-.1-.63-.09-.3-.28-.52-.19-.23-.48-.36-.29-.12-.68-.12-.75 0-1.18.42-.43.43-.55 1.21m4.41 1.05h-4.44q.04.55.2.95.15.4.4.67.25.26.6.39t.77.13.72-.1q.31-.1.53-.22l.4-.21q.17-.1.33-.1.22 0 .33.16l.49.63q-.28.34-.64.56-.36.23-.75.37-.38.13-.79.19-.4.05-.78.05-.75 0-1.39-.24-.64-.25-1.12-.74-.48-.48-.75-1.2t-.27-1.67q0-.73.24-1.38.23-.65.68-1.12.44-.48 1.08-.76t1.45-.28q.68 0 1.25.21.58.22.99.64.41.41.65 1.02.23.6.23 1.38 0 .39-.08.53-.09.14-.33.14m6.84-3.81h1.39l-3.91 9.15q-.08.19-.2.28-.13.1-.38.1h-1.29l1.35-2.89-2.91-6.64h1.52q.21 0 .32.1.12.09.17.22l1.53 3.72q.08.19.13.38t.1.39q.06-.2.13-.39.06-.19.14-.38l1.44-3.72q.05-.14.18-.23t.29-.09m7.81 2.15h1.41q.51 0 .9-.13.38-.13.64-.37.25-.25.38-.59.13-.35.13-.78 0-.4-.13-.73t-.38-.56-.63-.35q-.39-.13-.91-.13h-1.41zm-1.88-5.09h3.29q1.01 0 1.75.24.74.23 1.23.66.48.43.71 1.02.24.6.24 1.3 0 .74-.25 1.35-.24.61-.73 1.06-.49.44-1.23.68-.74.25-1.72.25h-1.41v3.56h-1.88zm9.91 3.37.11.81q.34-.64.8-1.01t1.09-.37q.5 0 .8.22l-.11 1.3q-.04.12-.11.18-.06.05-.17.05t-.32-.04q-.2-.03-.4-.03-.29 0-.51.08-.22.09-.4.24-.18.16-.32.38-.13.23-.25.52v4.42h-1.73v-7.18h1.01q.27 0 .37.09.11.1.14.34m6.88-.54q.8 0 1.45.25.66.26 1.12.74.47.48.72 1.16.25.69.25 1.54t-.25 1.54q-.25.68-.72 1.16-.46.49-1.12.75-.65.25-1.45.25-.81 0-1.46-.25-.66-.26-1.13-.75-.46-.48-.72-1.16-.25-.69-.25-1.54t.25-1.54q.26-.68.72-1.16.47-.48 1.13-.74.65-.25 1.46-.25m0 6.06q.89 0 1.32-.6.44-.6.44-1.76t-.44-1.77q-.43-.61-1.32-.61-.91 0-1.35.61t-.44 1.77q0 1.15.44 1.76.44.6 1.35.6m7.26 1.34q-.94 0-1.44-.53t-.5-1.46v-4.01h-.74q-.14 0-.23-.09-.1-.09-.1-.27v-.69l1.15-.19.37-1.96q.03-.14.13-.21.1-.08.25-.08h.9v2.26h1.92v1.23h-1.92v3.89q0 .34.16.53.17.19.45.19.16 0 .27-.04t.19-.08.15-.08q.06-.04.12-.04.08 0 .13.04t.1.12l.52.83q-.38.32-.87.48t-1.01.16m4.18-4.53h3.26q0-.33-.1-.63-.09-.3-.28-.52-.19-.23-.48-.36-.29-.12-.67-.12-.75 0-1.18.42-.43.43-.55 1.21m4.41 1.05h-4.45q.04.55.2.95.15.4.4.67.26.26.6.39.35.13.77.13t.72-.1q.31-.1.53-.22l.4-.21q.18-.1.34-.1.21 0 .32.16l.5.63q-.29.34-.65.56-.36.23-.74.37-.39.13-.8.19-.4.05-.78.05-.74 0-1.39-.24-.64-.25-1.12-.74-.47-.48-.75-1.2-.27-.72-.27-1.67 0-.73.24-1.38t.68-1.12q.44-.48 1.08-.76.65-.28 1.45-.28.68 0 1.25.21.58.22.99.64.41.41.65 1.02.23.6.23 1.38 0 .39-.08.53-.09.14-.32.14m1.75-3.81h1.74v7.18h-1.74zm1.98-2.1q0 .23-.09.42-.09.2-.25.35-.15.14-.35.23t-.43.09-.43-.09-.34-.23q-.15-.15-.24-.35-.08-.19-.08-.42t.08-.43q.09-.2.24-.35.14-.15.34-.23.2-.09.43-.09t.43.09q.2.08.35.23.16.15.25.35t.09.43m3.02 2.41.12.57q.22-.22.46-.4.24-.19.51-.32t.58-.2.67-.07q.59 0 1.04.2.46.19.76.56.31.36.46.86.16.5.16 1.1v4.57h-1.73v-4.57q0-.66-.3-1.02t-.92-.36q-.44 0-.84.2-.39.21-.74.56v5.19h-1.73v-7.18h1.06q.34 0 .44.31m11.96-3.25v10.12h-1.89v-10.12zm6.77 3.71-.4.63q-.07.11-.14.16-.08.04-.2.04t-.27-.07q-.14-.07-.33-.16-.19-.08-.43-.15t-.57-.07q-.51 0-.8.21-.29.22-.29.57 0 .23.15.39t.4.28q.24.11.56.21.31.09.64.2.33.12.64.26.32.14.56.36.25.22.4.53t.15.75q0 .51-.18.95-.19.44-.55.76-.37.32-.9.49-.54.18-1.24.18-.37 0-.72-.06-.35-.07-.68-.19t-.6-.28q-.28-.16-.49-.35l.4-.66q.08-.12.18-.18.11-.06.27-.06t.3.09q.15.09.34.19.18.11.44.2t.65.09q.31 0 .53-.07.22-.08.36-.19.14-.12.21-.28t.07-.33q0-.25-.15-.41t-.4-.28-.57-.21q-.32-.1-.65-.21t-.65-.26-.57-.38q-.25-.24-.4-.57-.15-.34-.15-.81 0-.44.18-.84.17-.4.51-.7t.85-.48q.51-.17 1.17-.17.74 0 1.35.24.61.25 1.02.64m4.55-.88q.8 0 1.46.25.65.26 1.12.74.46.48.71 1.16.26.69.26 1.54t-.26 1.54q-.25.68-.71 1.16-.47.49-1.12.75-.66.25-1.46.25t-1.46-.25q-.66-.26-1.12-.75-.47-.48-.72-1.16-.26-.69-.26-1.54t.26-1.54q.25-.68.72-1.16.46-.48 1.12-.74.66-.25 1.46-.25m0 6.06q.9 0 1.33-.6t.43-1.76-.43-1.77-1.33-.61q-.91 0-1.34.61-.44.61-.44 1.77 0 1.15.44 1.76.43.6 1.34.6m4.89-9.17h1.73v10.4h-1.73zm7.25 8.55v-1.22q-.75.04-1.26.13-.51.1-.82.25-.31.14-.44.34-.13.19-.13.42 0 .46.27.66.27.19.7.19.53 0 .92-.19t.76-.58m-3.65-3.78-.31-.55q1.24-1.14 2.98-1.14.63 0 1.13.21t.84.58q.34.36.52.87t.18 1.12v4.54h-.79q-.24 0-.37-.07-.14-.08-.21-.3l-.16-.52q-.27.25-.53.43-.26.19-.54.31-.28.13-.6.2-.32.06-.7.06-.46 0-.84-.12-.39-.12-.67-.37-.28-.24-.43-.61-.15-.36-.15-.84 0-.28.09-.55t.29-.51q.21-.25.54-.46.33-.22.81-.38t1.12-.26q.63-.1 1.45-.13v-.42q0-.72-.31-1.06-.3-.35-.89-.35-.42 0-.69.1-.28.1-.49.22t-.38.22-.38.1q-.18 0-.31-.1-.13-.09-.2-.22m9.36 5.74q-.94 0-1.44-.53t-.5-1.46v-4.01h-.74q-.14 0-.24-.09-.09-.09-.09-.27v-.69l1.15-.19.37-1.96q.03-.14.13-.21.1-.08.25-.08h.9v2.26h1.91v1.23h-1.91v3.89q0 .34.16.53.17.19.45.19.16 0 .27-.04t.19-.08.14-.08q.07-.04.13-.04.08 0 .13.04t.1.12l.52.83q-.38.32-.87.48t-1.01.16m4.18-4.53h3.26q0-.33-.1-.63-.09-.3-.28-.52-.19-.23-.48-.36-.29-.12-.68-.12-.74 0-1.17.42-.44.43-.55 1.21m4.41 1.05h-4.45q.04.55.2.95.15.4.4.67.25.26.6.39t.77.13.72-.1q.31-.1.53-.22l.4-.21q.17-.1.34-.1.21 0 .32.16l.49.63q-.28.34-.64.56-.36.23-.74.37-.39.13-.8.19-.4.05-.78.05-.75 0-1.39-.24-.64-.25-1.12-.74-.48-.48-.75-1.2t-.27-1.67q0-.73.24-1.38.23-.65.68-1.12.44-.48 1.08-.76t1.45-.28q.68 0 1.25.21.58.22.99.64.41.41.65 1.02.23.6.23 1.38 0 .39-.08.53-.09.14-.32.14"/></svg>