<svg xmlns="http://www.w3.org/2000/svg" width="300" height="300" viewBox="0 0 300 300"><rect width="100%" height="100%" fill="#DDDDDD"/><path fill="#999999" d="M64.155 142.6h2.3v12.29h-2.3v-5.37h-5.77v5.37h-2.29V142.6h2.29v5.29h5.77zm10.94 3.57h1.69l-4.75 11.12q-.1.22-.25.33-.15.12-.45.12h-1.57l1.64-3.5-3.53-8.07h1.84q.25 0 .39.12t.21.27l1.85 4.52q.1.23.16.46t.12.47q.08-.24.16-.47.07-.24.17-.47l1.75-4.51q.06-.17.22-.28t.35-.11m8.21 6.14v-3.91q-.36-.44-.78-.62-.42-.17-.91-.17-.47 0-.85.17-.39.18-.66.54t-.42.92q-.14.56-.14 1.32t.12 1.29q.13.53.36.87.23.33.56.48t.74.15q.65 0 1.11-.27t.87-.77m0-10.05h2.1v12.63h-1.29q-.41 0-.52-.38l-.18-.84q-.53.6-1.21.97-.69.38-1.6.38-.71 0-1.31-.3-.59-.3-1.02-.86-.43-.57-.66-1.4-.24-.83-.24-1.9 0-.97.27-1.81.26-.83.75-1.44.5-.61 1.18-.96.69-.34 1.55-.34.73 0 1.25.23t.93.62zm6.02 4.44.13.98q.41-.78.97-1.23.56-.44 1.33-.44.6 0 .96.26l-.13 1.57q-.04.16-.12.22-.09.06-.22.06t-.38-.04-.49-.04q-.35 0-.62.1t-.49.29q-.21.2-.38.47t-.31.62v5.37h-2.1v-8.72h1.23q.33 0 .45.11.13.12.17.42m9.1 5.94v-1.47q-.91.04-1.53.15-.62.12-1 .3-.37.18-.53.41-.16.24-.16.52 0 .55.32.79.33.24.86.24.64 0 1.12-.23.47-.24.92-.71m-4.44-4.58-.37-.68q1.5-1.37 3.62-1.37.76 0 1.37.25.6.25 1.02.7.41.44.63 1.06t.22 1.36v5.51h-.96q-.29 0-.45-.09-.17-.09-.26-.36l-.19-.63q-.33.3-.64.52-.32.23-.66.38t-.72.24q-.39.08-.86.08-.55 0-1.02-.15t-.81-.45-.52-.74q-.19-.44-.19-1.03 0-.33.11-.66.11-.32.36-.62t.65-.56.98-.46q.59-.2 1.36-.32t1.77-.15v-.51q0-.87-.38-1.29-.37-.43-1.08-.43-.51 0-.84.12-.34.12-.59.27-.26.15-.46.27-.21.12-.47.12-.22 0-.37-.12-.16-.11-.25-.26m11.37 6.97q-1.14 0-1.75-.65-.61-.64-.61-1.77v-4.87h-.89q-.17 0-.29-.11t-.12-.33v-.83l1.4-.23.45-2.38q.04-.17.16-.27.12-.09.3-.09h1.09v2.75h2.33v1.49h-2.33v4.73q0 .41.2.63.2.23.55.23.19 0 .33-.04.13-.05.23-.1.09-.05.17-.1.08-.04.15-.04.1 0 .16.04.06.05.12.14l.63 1.02q-.46.38-1.05.58-.6.2-1.23.2m3.48-8.86h2.11v8.72h-2.11zm2.4-2.54q0 .27-.11.51t-.3.41q-.18.18-.43.29-.24.1-.52.1-.27 0-.52-.1-.24-.11-.42-.29-.18-.17-.28-.41-.11-.24-.11-.51 0-.28.11-.53.1-.25.28-.42.18-.18.42-.29.25-.11.52-.11.28 0 .52.11.25.11.43.29.19.17.3.42t.11.53m5.71 2.4q.97 0 1.76.32.8.31 1.36.89.57.58.87 1.41.31.83.31 1.86 0 1.04-.31 1.87-.3.84-.87 1.42-.56.59-1.36.9-.79.32-1.76.32-.98 0-1.78-.32-.8-.31-1.36-.9-.57-.58-.88-1.42-.31-.83-.31-1.87 0-1.03.31-1.86t.88-1.41q.56-.58 1.36-.89.8-.32 1.78-.32m0 7.37q1.09 0 1.61-.73t.52-2.14-.52-2.15-1.61-.74q-1.11 0-1.64.74-.53.75-.53 2.15t.53 2.14q.53.73 1.64.73m7.73-6.85.14.69q.26-.26.56-.49.29-.22.62-.38t.7-.25.82-.09q.71 0 1.26.25.55.24.92.68.37.43.57 1.04.19.61.19 1.34v5.55h-2.1v-5.55q0-.8-.37-1.24-.36-.44-1.11-.44-.55 0-1.02.25-.48.25-.9.67v6.31h-2.1v-8.72h1.28q.41 0 .54.38m20.81-3.95v1.88h-3.7v10.41h-2.29v-10.41h-3.71v-1.88zm3.14 4.1.13.98q.4-.78.97-1.23.56-.44 1.32-.44.61 0 .97.26l-.14 1.57q-.04.16-.12.22t-.22.06q-.12 0-.37-.04t-.49-.04q-.35 0-.62.1t-.49.29q-.22.2-.38.47-.17.27-.31.62v5.37h-2.1v-8.72h1.23q.32 0 .45.11.13.12.17.42m9.09 5.94v-1.47q-.91.04-1.53.15-.62.12-.99.3t-.54.41q-.16.24-.16.52 0 .55.33.79t.85.24q.65 0 1.12-.23.47-.24.92-.71m-4.43-4.58-.38-.68q1.51-1.37 3.62-1.37.77 0 1.37.25.61.25 1.02.7.42.44.64 1.06.21.62.21 1.36v5.51h-.95q-.3 0-.46-.09t-.25-.36l-.19-.63q-.33.3-.65.52-.31.23-.65.38t-.73.24q-.38.08-.85.08-.55 0-1.02-.15t-.81-.45-.53-.74q-.18-.44-.18-1.03 0-.33.11-.66.11-.32.36-.62t.65-.56.98-.46 1.36-.32q.77-.12 1.76-.15v-.51q0-.87-.37-1.29-.37-.43-1.08-.43-.51 0-.84.12-.34.12-.6.27-.25.15-.46.27t-.46.12q-.22 0-.38-.12-.15-.11-.24-.26m15.25-.81-.55.76q-.09.12-.18.19t-.26.07q-.16 0-.31-.1-.16-.1-.37-.22t-.51-.22q-.29-.1-.72-.1-.55 0-.97.2t-.69.57q-.28.38-.42.91-.13.53-.13 1.2 0 .7.15 1.24.15.55.43.92t.68.56.9.19.81-.12q.31-.13.52-.28.21-.14.37-.27.16-.12.35-.12.26 0 .39.19l.6.77q-.35.41-.76.68-.4.28-.84.45-.44.16-.9.23-.47.07-.93.07-.8 0-1.52-.3-.71-.31-1.25-.88-.53-.58-.84-1.42t-.31-1.91q0-.96.27-1.78.28-.82.82-1.42.53-.6 1.32-.94t1.82-.34q.98 0 1.71.32.74.31 1.32.9m1.4-4.99h2.1v7.23h.39q.21 0 .34-.05.12-.06.25-.23l2.16-2.68q.14-.17.31-.27.16-.09.42-.09h1.93l-2.72 3.24q-.29.38-.63.58.18.13.32.3t.27.37l2.91 4.23h-1.9q-.24 0-.42-.08t-.3-.29l-2.23-3.31q-.12-.2-.24-.26-.13-.06-.39-.06h-.47v4h-2.1zm10.74 7.27h3.96q0-.41-.11-.77-.12-.36-.35-.64-.22-.27-.58-.43-.35-.15-.82-.15-.91 0-1.43.52-.52.51-.67 1.47m5.36 1.26h-5.4q.05.67.24 1.16t.49.81q.31.32.73.48.42.15.93.15t.88-.12q.37-.11.64-.26.28-.14.49-.26t.4-.12q.27 0 .39.19l.61.77q-.35.41-.78.68-.44.28-.91.45-.47.16-.96.23t-.95.07q-.91 0-1.69-.3-.78-.31-1.36-.9t-.91-1.46-.33-2.02q0-.89.29-1.68.29-.78.83-1.36.54-.59 1.31-.93.78-.34 1.76-.34.82 0 1.52.27.7.26 1.2.77.5.5.79 1.24.28.73.28 1.68 0 .47-.1.64-.1.16-.39.16m3.92-4.09.12.98q.41-.78.97-1.23.56-.44 1.33-.44.6 0 .97.26l-.14 1.57q-.04.16-.12.22t-.22.06q-.13 0-.38-.04t-.49-.04q-.34 0-.62.1-.27.1-.48.29-.22.2-.39.47-.16.27-.31.62v5.37h-2.1v-8.72h1.24q.32 0 .45.11.12.12.17.42m11.23 6.4h2.32q.63 0 1.07-.15.43-.15.69-.41.26-.25.37-.59.12-.34.12-.72 0-.4-.13-.72t-.4-.55q-.27-.22-.7-.34t-1.03-.12h-2.31zm1.95-8.73h-1.95v3.55h1.82q1.18 0 1.77-.43.6-.42.6-1.35 0-.96-.54-1.37-.54-.4-1.7-.4m-4.23-1.77h4.23q1.21 0 2.07.23.85.23 1.4.65.55.43.81 1.03.25.6.25 1.36 0 .43-.13.83-.12.4-.39.74t-.68.62-.98.48q2.53.57 2.53 2.74 0 .78-.3 1.44-.3.67-.87 1.15t-1.4.75-1.9.27h-4.64zm14.72 3.43q.97 0 1.76.32.8.31 1.36.89.57.58.87 1.41.31.83.31 1.86 0 1.04-.31 1.87-.3.84-.87 1.42-.56.59-1.36.9-.79.32-1.76.32-.98 0-1.78-.32-.8-.31-1.36-.9-.57-.58-.88-1.42-.31-.83-.31-1.87 0-1.03.31-1.86t.88-1.41q.56-.58 1.36-.89.8-.32 1.78-.32m0 7.37q1.09 0 1.61-.73t.52-2.14-.52-2.15-1.61-.74q-1.11 0-1.64.74-.53.75-.53 2.15t.53 2.14q.53.73 1.64.73m8.81 1.63q-1.14 0-1.74-.65-.61-.64-.61-1.77v-4.87h-.89q-.17 0-.29-.11t-.12-.33v-.83l1.4-.23.44-2.38q.05-.17.16-.27.12-.09.31-.09h1.09v2.75h2.33v1.49h-2.33v4.73q0 .41.2.63.2.23.55.23.19 0 .32-.04.14-.05.23-.1.1-.05.18-.1.07-.04.15-.04.09 0 .15.04.06.05.13.14l.63 1.02q-.46.38-1.05.58-.6.2-1.24.2m6.33 0q-1.14 0-1.75-.65-.61-.64-.61-1.77v-4.87h-.89q-.17 0-.29-.11t-.12-.33v-.83l1.41-.23.44-2.38q.04-.17.16-.27.12-.09.3-.09h1.09v2.75h2.33v1.49h-2.33v4.73q0 .41.2.63.2.23.55.23.2 0 .33-.04.13-.05.23-.1t.17-.1q.08-.04.15-.04.1 0 .16.04.06.05.13.14l.62 1.02q-.45.38-1.05.58-.59.2-1.23.2m3.44-12.77h2.1v12.63h-2.1zm5.86 7.27h3.96q0-.41-.12-.77-.11-.36-.34-.64-.23-.27-.58-.43-.36-.15-.82-.15-.91 0-1.44.52-.52.51-.66 1.47m5.35 1.26h-5.4q.06.67.24 1.16.19.49.5.81.3.32.72.48.42.15.93.15t.88-.12q.37-.11.65-.26.27-.14.48-.26t.41-.12q.26 0 .39.19l.6.77q-.35.41-.78.68-.43.28-.91.45-.47.16-.96.23t-.94.07q-.91 0-1.7-.3-.78-.31-1.36-.9-.57-.59-.91-1.46-.33-.87-.33-2.02 0-.89.29-1.68.29-.78.83-1.36.54-.59 1.32-.93t1.75-.34q.83 0 1.53.27.69.26 1.19.77.51.5.79 1.24.28.73.28 1.68 0 .47-.1.64-.1.16-.39.16"/></svg>