<svg xmlns="http://www.w3.org/2000/svg" width="300" height="300" viewBox="0 0 300 300"><rect width="100%" height="100%" fill="#DDDDDD"/><path fill="#999999" d="M73.895 148.16q0 1.82-.61 3.35t-1.71 2.64q-1.1 1.1-2.66 1.71-1.55.61-3.45.61h-6.33v-16.63h6.33q1.9 0 3.45.62 1.56.61 2.66 1.71t1.71 2.63.61 3.36m-3.17 0q0-1.37-.36-2.46-.37-1.09-1.05-1.84t-1.66-1.16q-.97-.4-2.19-.4h-3.23v11.71h3.23q1.22 0 2.19-.4.98-.41 1.66-1.16t1.05-1.84q.36-1.09.36-2.45m5.54-3.49h2.85v11.8h-2.85zm3.24-3.44q0 .37-.15.69-.14.32-.39.57-.25.24-.58.38-.34.14-.72.14-.36 0-.69-.14t-.57-.38q-.24-.25-.39-.57-.14-.32-.14-.69 0-.38.14-.71.15-.33.39-.58.24-.24.57-.38t.69-.14q.38 0 .72.14.33.14.58.38.25.25.39.58.15.33.15.71m6.82 9.05q.53 0 .92-.14t.65-.4q.26-.25.39-.61.14-.35.14-.78 0-.87-.53-1.38-.52-.52-1.57-.52-1.04 0-1.57.52-.52.51-.52 1.38 0 .41.13.77.14.36.39.62.26.26.66.4t.91.14m3.21 6.72q0-.35-.2-.56-.21-.22-.57-.34-.35-.12-.83-.18t-1.01-.09q-.54-.03-1.11-.05t-1.11-.09q-.47.26-.76.62-.3.36-.3.83 0 .31.16.58.15.27.49.46.34.2.88.31t1.33.11 1.36-.12q.58-.12.95-.34.38-.21.55-.5.17-.3.17-.64m-.56-11.93h3.39v1.06q0 .51-.61.62l-1.06.2q.25.61.25 1.33 0 .88-.36 1.58-.35.71-.97 1.2-.62.5-1.46.77-.85.27-1.83.27-.34 0-.66-.03-.33-.04-.64-.1-.55.34-.55.75 0 .36.33.52.33.17.87.24t1.23.09q.69.01 1.41.07.73.06 1.42.2.69.15 1.23.46t.87.84q.32.54.32 1.38 0 .78-.38 1.51-.39.74-1.12 1.32-.73.57-1.79.92t-2.42.35q-1.34 0-2.32-.26-.99-.26-1.65-.69-.65-.43-.98-.99-.32-.57-.32-1.18 0-.82.5-1.38t1.38-.89q-.48-.24-.75-.65-.28-.4-.28-1.05 0-.27.1-.55t.29-.56q.19-.27.48-.52.28-.25.67-.44-.89-.49-1.4-1.29-.52-.81-.52-1.89 0-.87.35-1.58t.98-1.21 1.49-.76q.85-.27 1.86-.27.76 0 1.43.16.67.15 1.22.45m5.28-.4h2.85v11.8h-2.85zm3.24-3.44q0 .37-.15.69t-.4.57q-.24.24-.58.38-.33.14-.71.14-.37 0-.7-.14-.32-.14-.56-.38-.25-.25-.39-.57t-.14-.69q0-.38.14-.71t.39-.58q.24-.24.56-.38.33-.14.7-.14.38 0 .71.14.34.14.58.38.25.25.4.58t.15.71m6.44 15.42q-1.54 0-2.36-.86-.83-.87-.83-2.4v-6.59h-1.2q-.23 0-.39-.15t-.16-.45v-1.13l1.89-.31.6-3.22q.06-.23.22-.35.16-.13.41-.13h1.48v3.71h3.15v2.03h-3.15v6.39q0 .55.27.86.27.32.74.32.26 0 .44-.07.18-.06.31-.13l.24-.13q.1-.07.2-.07.13 0 .21.07.08.06.17.19l.85 1.38q-.62.52-1.42.78-.81.26-1.67.26m10.86-3.23v-1.99q-1.23.06-2.07.22-.84.15-1.35.39t-.72.57q-.22.32-.22.7 0 .74.44 1.07.44.32 1.16.32.87 0 1.51-.32.64-.31 1.25-.96m-6.01-6.2-.5-.9q2.03-1.87 4.9-1.87 1.03 0 1.85.34.81.34 1.38.94.56.61.85 1.45.3.84.3 1.84v7.45h-1.29q-.4 0-.62-.12t-.35-.49l-.25-.85q-.45.4-.87.71-.43.3-.89.51t-.98.31q-.53.11-1.16.11-.75 0-1.38-.2t-1.09-.6-.71-1q-.26-.6-.26-1.39 0-.45.15-.89.15-.45.49-.85t.88-.76 1.33-.62 1.83-.43q1.05-.17 2.4-.2v-.69q0-1.19-.51-1.76t-1.46-.57q-.69 0-1.14.17-.46.16-.8.36l-.63.36q-.28.16-.63.16-.3 0-.5-.15-.21-.16-.34-.37m11.48-7.84h2.84v17.09h-2.84zm22.21 2.92h-7.39v4.92h6.24v2.48h-6.24v6.77h-3.1v-16.63h10.49zm7.3 2.19q1.31 0 2.39.42 1.07.43 1.84 1.21.76.78 1.17 1.91.42 1.13.42 2.52 0 1.4-.42 2.53-.41 1.12-1.17 1.92-.77.79-1.84 1.22-1.08.42-2.39.42-1.32 0-2.4-.42-1.09-.43-1.85-1.22-.76-.8-1.18-1.92-.42-1.13-.42-2.53 0-1.39.42-2.52t1.18-1.91 1.85-1.21q1.08-.42 2.4-.42m0 9.97q1.47 0 2.18-.99t.71-2.9-.71-2.91-2.18-1q-1.5 0-2.21 1.01-.72 1-.72 2.9t.72 2.89q.71 1 2.21 1m13.21-9.97q1.31 0 2.39.42 1.07.43 1.84 1.21.76.78 1.18 1.91.41 1.13.41 2.52 0 1.4-.41 2.53-.42 1.12-1.18 1.92-.77.79-1.84 1.22-1.08.42-2.39.42-1.32 0-2.4-.42-1.08-.43-1.85-1.22-.76-.8-1.18-1.92-.42-1.13-.42-2.53 0-1.39.42-2.52t1.18-1.91q.77-.78 1.85-1.21 1.08-.42 2.4-.42m0 9.97q1.47 0 2.18-.99t.71-2.9-.71-2.91-2.18-1q-1.49 0-2.21 1.01-.72 1-.72 2.9t.72 2.89q.72 1 2.21 1m15.4-1.49v-5.29q-.48-.58-1.05-.82-.57-.25-1.23-.25-.64 0-1.16.25-.51.24-.88.73t-.57 1.24q-.19.75-.19 1.77 0 1.04.16 1.76.17.72.48 1.17.31.46.76.66t1 .2q.89 0 1.51-.37t1.17-1.05m0-13.59h2.84v17.09h-1.73q-.57 0-.72-.52l-.24-1.14q-.71.82-1.64 1.33-.92.5-2.15.5-.97 0-1.78-.4-.8-.4-1.38-1.17-.58-.76-.9-1.89-.31-1.13-.31-2.58 0-1.31.35-2.43.36-1.13 1.03-1.96.66-.83 1.59-1.29.94-.47 2.1-.47.99 0 1.69.31t1.25.84zm21.31 2.03-.77 1.46q-.14.24-.29.35-.16.11-.39.11-.24 0-.52-.18t-.67-.4q-.4-.22-.92-.4-.52-.17-1.23-.17-.65 0-1.13.15-.48.16-.81.43-.33.28-.49.66-.16.39-.16.85 0 .58.33.98.32.39.86.66.54.28 1.23.5t1.42.46q.72.25 1.41.58t1.23.83.87 1.22q.33.73.33 1.76 0 1.13-.39 2.11-.38.98-1.12 1.71t-1.81 1.15-2.45.42q-.8 0-1.57-.15-.77-.16-1.48-.44-.7-.29-1.32-.69-.62-.41-1.11-.9l.91-1.48q.12-.17.3-.27.18-.11.39-.11.29 0 .62.23.34.24.8.53.46.28 1.07.52.62.23 1.48.23 1.32 0 2.05-.62.72-.63.72-1.8 0-.66-.33-1.07-.33-.42-.87-.7t-1.23-.47q-.69-.2-1.4-.43t-1.4-.55-1.23-.84-.87-1.3q-.33-.77-.33-1.91 0-.91.36-1.77.37-.86 1.06-1.53t1.7-1.07 2.32-.4q1.47 0 2.71.46 1.25.46 2.12 1.29m11.74 4.72-.75 1.04q-.12.16-.24.25t-.35.09q-.22 0-.43-.13t-.49-.3q-.29-.17-.69-.3-.39-.13-.98-.13-.75 0-1.31.27-.57.27-.94.78-.37.5-.56 1.22-.18.72-.18 1.63 0 .94.2 1.68.2.73.58 1.23t.92.76 1.22.26 1.1-.17q.42-.16.71-.36.28-.21.5-.37.21-.17.47-.17.35 0 .52.27l.82 1.03q-.47.55-1.03.93-.55.37-1.14.59-.59.23-1.22.32t-1.25.09q-1.09 0-2.06-.41-.96-.4-1.69-1.19-.72-.78-1.14-1.91t-.42-2.58q0-1.3.37-2.41.38-1.11 1.1-1.92.73-.81 1.8-1.27t2.46-.46q1.32 0 2.31.42 1 .43 1.79 1.22m8.12 7.29v-1.99q-1.23.06-2.07.22-.84.15-1.34.39-.51.24-.73.57-.22.32-.22.7 0 .74.45 1.07.44.32 1.15.32.88 0 1.51-.32.64-.31 1.25-.96m-6-6.2-.51-.9q2.04-1.87 4.9-1.87 1.04 0 1.85.34.82.34 1.38.94.57.61.86 1.45t.29 1.84v7.45h-1.29q-.4 0-.62-.12-.21-.12-.34-.49l-.25-.85q-.45.4-.88.71-.42.3-.88.51t-.99.31q-.52.11-1.15.11-.75 0-1.38-.2-.64-.2-1.1-.6t-.71-1-.25-1.39q0-.45.15-.89.15-.45.49-.85t.88-.76 1.32-.62q.79-.26 1.84-.43t2.39-.2v-.69q0-1.19-.5-1.76-.51-.57-1.47-.57-.69 0-1.14.17-.45.16-.8.36-.34.2-.63.36-.28.16-.62.16-.3 0-.51-.15-.21-.16-.33-.37m11.48-7.84h2.84v17.09h-2.84zm7.92 9.83h5.36q0-.55-.16-1.04-.15-.49-.46-.85-.31-.37-.79-.58-.48-.22-1.11-.22-1.23 0-1.94.7-.71.71-.9 1.99m7.24 1.72h-7.3q.07.91.32 1.57.26.66.67 1.09t.98.64q.57.22 1.26.22t1.19-.17q.5-.16.88-.35.37-.2.65-.36t.55-.16q.36 0 .53.27l.81 1.03q-.47.55-1.05.93-.59.37-1.23.59-.64.23-1.3.32t-1.28.09q-1.23 0-2.29-.41-1.06-.4-1.84-1.2t-1.23-1.98-.45-2.73q0-1.21.39-2.27.39-1.07 1.12-1.86.73-.78 1.79-1.24 1.05-.46 2.37-.46 1.12 0 2.06.35.94.36 1.62 1.04.68.69 1.07 1.68.38 1 .38 2.27 0 .65-.14.87-.14.23-.53.23"/></svg>