<svg xmlns="http://www.w3.org/2000/svg" width="300" height="300" viewBox="0 0 300 300"><rect width="100%" height="100%" fill="#DDDDDD"/><path fill="#999999" d="M75.32 148.07q0 1.91-.63 3.54-.63 1.62-1.78 2.81t-2.77 1.86q-1.62.66-3.6.66-1.97 0-3.59-.66-1.62-.67-2.78-1.86-1.15-1.19-1.79-2.81-.64-1.63-.64-3.54 0-1.9.64-3.53t1.79-2.81q1.16-1.19 2.78-1.86 1.62-.66 3.59-.66 1.32 0 2.48.3 1.17.31 2.14.87.97.55 1.75 1.35.77.8 1.31 1.78.54.99.82 2.14t.28 2.42m-3.3 0q0-1.42-.38-2.56-.38-1.13-1.09-1.92-.71-.8-1.72-1.22-1.02-.42-2.29-.42t-2.29.42q-1.01.42-1.72 1.22-.72.79-1.1 1.92-.39 1.14-.39 2.56 0 1.43.39 2.57.38 1.13 1.1 1.92.71.78 1.72 1.2 1.02.42 2.29.42t2.29-.42q1.01-.42 1.72-1.2.71-.79 1.09-1.92.38-1.14.38-2.57m8.64 8.68H77.7v-12.31h1.81q.58 0 .76.54l.19.91q.32-.36.68-.66.35-.3.75-.52.41-.21.87-.34.46-.12 1.01-.12 1.17 0 1.92.63t1.12 1.67q.29-.61.72-1.05t.95-.71q.51-.28 1.09-.41.59-.13 1.17-.13 1.02 0 1.82.31.79.31 1.33.91t.82 1.46q.28.87.28 1.98v7.84h-2.96v-7.84q0-1.17-.52-1.77-.51-.59-1.51-.59-.46 0-.85.16-.39.15-.68.45-.29.29-.46.73-.17.45-.17 1.02v7.84h-2.98v-7.84q0-1.23-.49-1.8-.5-.56-1.46-.56-.65 0-1.21.32t-1.04.87zm19.48-7.57h5.59q0-.58-.16-1.09t-.49-.89q-.32-.39-.82-.61t-1.16-.22q-1.28 0-2.02.73t-.94 2.08m7.56 1.79h-7.62q.07.94.34 1.63.26.69.69 1.14t1.03.68q.59.22 1.31.22t1.24-.17q.53-.17.92-.37.39-.21.68-.37.29-.17.57-.17.37 0 .55.27l.85 1.08q-.49.58-1.1.97t-1.28.62q-.66.24-1.35.33-.69.1-1.34.1-1.29 0-2.39-.43-1.1-.42-1.92-1.26-.82-.83-1.28-2.06-.47-1.23-.47-2.85 0-1.26.41-2.37.4-1.11 1.17-1.93.76-.82 1.86-1.3 1.09-.48 2.47-.48 1.17 0 2.15.37.99.37 1.69 1.08.71.72 1.11 1.76.41 1.03.41 2.37 0 .67-.15.9-.14.24-.55.24m7.42-.68q.55 0 .96-.15.4-.15.67-.41t.41-.64q.14-.37.14-.81 0-.91-.55-1.45-.54-.53-1.63-.53-1.1 0-1.64.53-.55.54-.55 1.45 0 .43.14.8t.41.64.68.42q.42.15.96.15m3.34 7.01q0-.36-.21-.59-.22-.22-.59-.35t-.87-.19-1.06-.09q-.55-.03-1.15-.05-.59-.02-1.16-.1-.49.28-.79.65-.31.37-.31.87 0 .32.16.6t.52.49q.35.2.92.32.56.11 1.38.11t1.42-.13q.6-.12.99-.34.39-.23.57-.53.18-.31.18-.67m-.58-12.44h3.54v1.1q0 .53-.64.65l-1.1.2q.25.64.25 1.4 0 .91-.37 1.65-.36.73-1.01 1.25t-1.53.8-1.9.28q-.36 0-.7-.04-.34-.03-.66-.09-.58.35-.58.78 0 .37.35.54.34.18.9.25.57.07 1.29.09t1.47.08q.76.06 1.48.21t1.28.47q.57.33.91.88.34.56.34 1.44 0 .81-.4 1.58t-1.17 1.37q-.76.6-1.87.97-1.11.36-2.52.36-1.4 0-2.43-.27t-1.71-.72q-.69-.45-1.02-1.04-.34-.58-.34-1.22 0-.86.52-1.45.52-.58 1.44-.93-.5-.25-.78-.67-.29-.42-.29-1.1 0-.28.1-.57.1-.3.3-.58.2-.29.5-.55t.71-.46q-.94-.51-1.47-1.35-.54-.84-.54-1.96 0-.92.37-1.65.36-.74 1.02-1.26.65-.53 1.55-.8.89-.28 1.95-.28.79 0 1.48.16.7.17 1.28.48m11.91 8.71v-2.08q-1.28.06-2.16.23-.87.16-1.4.41t-.76.59q-.23.33-.23.73 0 .78.47 1.12.46.33 1.2.33.91 0 1.58-.33t1.3-1m-6.26-6.47-.53-.95q2.12-1.94 5.11-1.94 1.08 0 1.93.35.86.36 1.44.99.59.63.9 1.5.3.88.3 1.92v7.78h-1.34q-.42 0-.65-.13-.23-.12-.36-.51l-.26-.88q-.47.42-.91.73-.45.32-.93.54-.48.21-1.02.33-.55.11-1.21.11-.78 0-1.44-.21t-1.14-.63-.74-1.04q-.27-.63-.27-1.45 0-.47.16-.93.15-.47.51-.89.35-.42.92-.79.56-.37 1.38-.65.82-.27 1.92-.45 1.09-.17 2.49-.21v-.72q0-1.23-.53-1.83-.52-.59-1.52-.59-.72 0-1.19.17-.48.17-.84.38t-.65.37q-.3.17-.66.17-.31 0-.52-.16-.22-.16-.35-.38m11.84 3.64v-2.47h6.22v2.47zm10.44-6.23-1.56-.28q.18-1.24.7-2.19.51-.94 1.29-1.57.77-.63 1.77-.95 1.01-.31 2.16-.31 1.2 0 2.16.34.97.34 1.65.95.69.6 1.05 1.42.37.81.37 1.76 0 .83-.19 1.46-.18.63-.53 1.1t-.86.79q-.52.32-1.17.54 1.56.49 2.33 1.5t.77 2.53q0 1.3-.48 2.29-.48 1-1.3 1.68-.81.68-1.89 1.02-1.07.35-2.27.35-1.31 0-2.28-.3t-1.69-.89q-.72-.58-1.23-1.44-.5-.85-.86-1.96l1.31-.54q.51-.22.96-.12t.66.49q.21.42.47.83.26.4.62.72t.84.52q.49.2 1.16.2.76 0 1.32-.25.57-.25.94-.64.38-.4.57-.88.18-.49.18-.98 0-.63-.13-1.14t-.55-.87-1.21-.56q-.78-.2-2.1-.2v-2.12q1.09-.01 1.81-.2t1.15-.53q.42-.35.59-.83t.17-1.05q0-1.23-.69-1.86-.68-.64-1.82-.64-.53 0-.97.15-.45.15-.8.42t-.59.63-.36.79q-.21.56-.54.74t-.93.08m29.77-2.54h-7.7v5.13h6.5v2.58h-6.5v7.07h-3.24V139.4h10.94zm2.27 2.47h2.98v12.31h-2.98zm3.39-3.59q0 .38-.16.72t-.41.59q-.26.25-.61.4t-.74.15-.73-.15-.59-.4q-.26-.25-.41-.59t-.15-.72q0-.4.15-.74.15-.35.41-.6.25-.26.59-.41t.73-.15.74.15.61.41q.25.25.41.6.16.34.16.74m10.8 4.92-.68 1.07q-.12.19-.25.27t-.33.08q-.22 0-.47-.12-.24-.12-.57-.27-.32-.15-.73-.27-.42-.12-.98-.12-.88 0-1.38.37-.49.37-.49.97 0 .4.25.67.26.27.69.47.42.2.96.37.54.16 1.1.35t1.1.44q.54.24.97.62.42.38.68.91t.26 1.27q0 .89-.32 1.64t-.94 1.29q-.63.55-1.54.86-.92.3-2.12.3-.64 0-1.24-.11-.61-.12-1.17-.32t-1.03-.48-.83-.6l.68-1.13q.13-.2.31-.31t.46-.11q.27 0 .52.16.25.15.57.33t.76.34 1.11.16q.53 0 .91-.13t.62-.33q.25-.2.36-.47.12-.27.12-.56 0-.43-.26-.71t-.69-.48q-.42-.2-.97-.37-.54-.16-1.11-.35t-1.12-.45-.97-.65q-.43-.4-.69-.98-.25-.57-.25-1.39 0-.75.3-1.44.3-.68.88-1.19t1.45-.82q.87-.3 2.01-.3 1.27 0 2.32.42 1.04.42 1.74 1.1m5.32-6.85v6.84q.72-.67 1.59-1.09.86-.42 2.03-.42 1 0 1.78.34t1.31.96q.52.62.79 1.47.27.86.27 1.89v7.84h-2.97v-7.84q0-1.12-.51-1.74-.52-.62-1.57-.62-.77 0-1.44.35-.68.35-1.28.95v8.9h-2.96v-17.83zm33.42 9.15q0 1.91-.63 3.54-.63 1.62-1.78 2.81t-2.77 1.86q-1.62.66-3.6.66-1.97 0-3.59-.66-1.62-.67-2.78-1.86-1.15-1.19-1.79-2.81-.64-1.63-.64-3.54 0-1.9.64-3.53t1.79-2.81q1.16-1.19 2.78-1.86 1.62-.66 3.59-.66 1.32 0 2.48.3 1.17.31 2.14.87.97.55 1.75 1.35.77.8 1.31 1.78.54.99.82 2.14t.28 2.42m-3.3 0q0-1.42-.38-2.56-.38-1.13-1.09-1.92-.71-.8-1.72-1.22-1.02-.42-2.29-.42t-2.29.42q-1.01.42-1.72 1.22-.72.79-1.1 1.92-.39 1.14-.39 2.56 0 1.43.39 2.57.38 1.13 1.1 1.92.71.78 1.72 1.2 1.02.42 2.29.42t2.29-.42q1.01-.42 1.72-1.2.71-.79 1.09-1.92.38-1.14.38-2.57m5.78-3.63h2.97v12.31h-2.97zm3.38-3.59q0 .38-.16.72-.15.34-.41.59t-.61.4q-.34.15-.74.15-.38 0-.73-.15-.34-.15-.59-.4t-.4-.59-.15-.72q0-.4.15-.74.15-.35.4-.6.25-.26.59-.41.35-.15.73-.15.4 0 .74.15.35.15.61.41.26.25.41.6.16.34.16.74m2.65-1.93h2.97v17.83h-2.97z"/></svg>